<?xml version="1.0" encoding="UTF-8" standalone="no"?><!DOCTYPE svg PUBLIC "-//W3C//DTD SVG 1.1//EN" "http://www.w3.org/Graphics/SVG/1.1/DTD/svg11.dtd"><svg width="100%" height="100%" viewBox="0 0 12 12" version="1.1" xmlns="http://www.w3.org/2000/svg" xmlns:xlink="http://www.w3.org/1999/xlink" xml:space="preserve" style="fill-rule:evenodd;clip-rule:evenodd;stroke-linejoin:round;stroke-miterlimit:1.41421;"><g><g><path d="M6.897,11.303l-2.661,0l-2.089,-2.081l0.383,-1.24c-0.253,-0.299 -0.726,-1.749 -0.51,-1.876c0.296,-0.175 0.527,-0.456 0.773,-0.727c0.149,-0.165 0.304,-0.326 0.482,-0.458l2.291,0.388l2.292,-0.388c0.764,0.715 1.554,1.425 2.17,2.163c0.873,1.156 -0.577,1.806 -1.426,0.898l0.384,1.24l-2.089,2.081l0,0Z" style="fill:#d09d72;"/><g><g><ellipse cx="2.962" cy="10.164" rx="1.805" ry="1.724" style="fill:#e0c28e;"/><ellipse cx="8.171" cy="10.164" rx="1.805" ry="1.724" style="fill:#e0c28e;"/><g><ellipse cx="2.998" cy="10.783" rx="0.903" ry="0.836" style="fill:#a8745e;"/><path d="M2.073,9.091c0.107,-0.053 0.274,0.065 0.372,0.262c0.098,0.197 0.089,0.4 -0.017,0.453c-0.107,0.053 -0.273,-0.064 -0.371,-0.261c-0.098,-0.197 -0.09,-0.401 0.016,-0.454Z" style="fill:#a8745e;"/><path d="M3.226,8.911c0.118,0.017 0.187,0.208 0.154,0.425c-0.033,0.219 -0.155,0.38 -0.273,0.363c-0.118,-0.019 -0.188,-0.209 -0.155,-0.427c0.033,-0.217 0.155,-0.38 0.274,-0.361l0,0Z" style="fill:#a8745e;"/><path d="M4.133,9.285c0.11,0.046 0.131,0.248 0.047,0.452c-0.085,0.202 -0.243,0.33 -0.353,0.284c-0.11,-0.046 -0.131,-0.248 -0.047,-0.451c0.085,-0.203 0.243,-0.331 0.353,-0.285Z" style="fill:#a8745e;"/></g><g><ellipse cx="8.122" cy="10.783" rx="0.903" ry="0.836" style="fill:#a8745e;"/><path d="M9.046,9.091c-0.107,-0.053 -0.273,0.065 -0.371,0.262c-0.098,0.197 -0.09,0.4 0.017,0.453c0.106,0.053 0.273,-0.064 0.371,-0.261c0.098,-0.197 0.09,-0.401 -0.017,-0.454l0,0Z" style="fill:#a8745e;"/><path d="M7.894,8.911c-0.119,0.017 -0.187,0.208 -0.154,0.425c0.032,0.219 0.155,0.38 0.273,0.363c0.118,-0.019 0.187,-0.209 0.154,-0.427c-0.032,-0.217 -0.155,-0.38 -0.273,-0.361l0,0Z" style="fill:#a8745e;"/><path d="M6.987,9.285c-0.111,0.046 -0.131,0.248 -0.048,0.452c0.085,0.202 0.243,0.33 0.354,0.284c0.11,-0.046 0.131,-0.248 0.047,-0.451c-0.085,-0.203 -0.242,-0.331 -0.353,-0.285l0,0Z" style="fill:#a8745e;"/></g></g><path d="M3.737,5.762l3.659,0c0.232,1.022 0.164,1.896 -0.264,2.593c-0.293,0.55 -0.764,0.917 -1.565,0.953l-0.001,0l-0.001,0c-0.8,-0.036 -1.272,-0.403 -1.565,-0.953c-0.427,-0.697 -0.496,-1.571 -0.263,-2.593l0,0Z" style="fill:#e0c28e;"/><path d="M4.284,0.702c-0.316,-0.356 -0.556,-0.47 -0.776,-0.527c-0.619,-0.172 -1.116,0.014 -1.529,0.451c-0.258,0.406 -0.364,0.831 -0.191,1.287c0.142,0.372 0.3,0.622 0.676,0.805l0.842,-0.55l0.759,0l0.219,-1.466Zm2.565,0c0.316,-0.356 0.556,-0.47 0.775,-0.527c0.62,-0.172 1.117,0.014 1.53,0.451c0.258,0.406 0.364,0.831 0.191,1.287c-0.142,0.372 -0.301,0.622 -0.676,0.805l-0.842,-0.55l-0.759,0l-0.219,-1.466l0,0Z" style="fill:#d09d72;"/><path d="M5.504,0.306c0.022,0 0.103,0 0.125,0c1.8,0.03 2.749,1.076 3.145,2.783c0.2,1.301 -0.346,2.253 -1.999,3.004c-0.363,0.111 -0.779,0.133 -1.209,0.131c-0.429,0.002 -0.845,-0.02 -1.208,-0.131c-1.653,-0.751 -2.199,-1.703 -1.999,-3.004c0.396,-1.707 1.344,-2.753 3.145,-2.783l0,0Z" style="fill:#d09d72;"/><g><path d="M3.738,0.763c-0.342,-0.423 -0.717,-0.468 -1.11,-0.269c-0.267,0.156 -0.45,0.371 -0.57,0.631c-0.048,0.17 -0.072,0.343 -0.036,0.52c0.056,0.286 0.272,0.479 0.596,0.609c0.254,-0.606 0.627,-1.103 1.12,-1.491l0,0Z" style="fill:#a8745e;"/><path d="M7.395,0.763c0.342,-0.423 0.716,-0.468 1.109,-0.269c0.268,0.156 0.451,0.371 0.571,0.631c0.048,0.17 0.071,0.343 0.036,0.52c-0.056,0.286 -0.272,0.479 -0.596,0.609c-0.255,-0.606 -0.627,-1.103 -1.12,-1.491l0,0Z" style="fill:#a8745e;"/></g><ellipse cx="5.566" cy="4.598" rx="1.623" ry="1.38" style="fill:#e0c28e;"/><g><circle cx="4.096" cy="3.25" r="0.369" style="fill:#76595b;"/><circle cx="4.144" cy="3.212" r="0.179" style="fill:#a8745e;"/><circle cx="7.036" cy="3.25" r="0.369" style="fill:#76595b;"/><circle cx="7.006" cy="3.221" r="0.179" style="fill:#a8745e;"/></g><path d="M5.663,5.592c0.083,-0.006 0.538,0.104 0.518,0.135c-0.013,0.022 -0.601,0.053 -0.614,0.052c-0.09,-0.005 -0.55,-0.032 -0.563,-0.052c-0.02,-0.03 0.38,-0.142 0.472,-0.135l0,-0.994c-0.243,-0.082 -0.432,-0.224 -0.472,-0.448l0,-0.157c0.051,-0.127 0.135,-0.218 0.303,-0.216l0.524,0c0.169,-0.002 0.252,0.089 0.303,0.216l0,0.157c-0.04,0.224 -0.228,0.366 -0.471,0.448l0,0.994Z" style="fill:#a8745e;"/><path d="M4.132,3.815c0,0 -0.228,0.297 -0.228,0.425c0,0.126 0.102,0.228 0.228,0.228c0.126,0 0.229,-0.102 0.229,-0.228c0,-0.128 -0.229,-0.425 -0.229,-0.425Z" style="fill:#6bb2ff;"/><g><path d="M4.132,3.815c0,0 -0.228,0.297 -0.228,0.425c0,0.126 0.102,0.228 0.228,0.228c0.126,0 0.229,-0.102 0.229,-0.228c0,-0.128 -0.229,-0.425 -0.229,-0.425Z" style="fill:#6bb2ff;"/><path d="M4.144,3.89c0,0 -0.11,0.143 -0.11,0.204c0,0.06 0.049,0.109 0.11,0.109c0.06,0 0.109,-0.049 0.109,-0.109c0,-0.061 -0.109,-0.204 -0.109,-0.204Z" style="fill:#9be0ff;"/></g><g><path d="M7.108,3.701c0,0 -0.14,0.182 -0.14,0.26c0,0.078 0.062,0.141 0.14,0.141c0.077,0 0.14,-0.063 0.14,-0.141c0,-0.078 -0.14,-0.26 -0.14,-0.26Z" style="fill:#6bb2ff;"/><path d="M7.115,3.747c0,0 -0.067,0.087 -0.067,0.125c0,0.037 0.03,0.067 0.067,0.067c0.037,0 0.067,-0.03 0.067,-0.067c0,-0.038 -0.067,-0.125 -0.067,-0.125Z" style="fill:#9be0ff;"/></g></g></g><g><path d="M9.38,7.443l-0.414,-0.855l-4.425,2.139c-0.773,0.474 -0.45,1.197 0.414,0.855l4.425,-2.139Z" style="fill:#c28452;"/><clipPath id="_clip1"><path d="M9.38,7.443l-0.414,-0.855l-4.425,2.139c-0.773,0.474 -0.45,1.197 0.414,0.855l4.425,-2.139Z"/></clipPath><g clip-path="url(#_clip1)"><path d="M9.38,7.443l-0.164,-0.339l-5.444,2.631c-0.984,0.516 -0.874,0.811 0.164,0.34l5.444,-2.632Z" style="fill:#a76c3b;"/></g><g><path d="M9.76,6.723l0.182,0.36c0.074,0.139 0.207,0.21 0.381,0.234c0.435,-0.216 0.769,-0.567 1.227,-0.745c-0.114,0.38 -0.216,0.912 -0.52,1.205l-0.561,0.205c-0.464,0.055 -0.887,-0.127 -1.283,-0.47l-0.213,-0.406l0.132,-0.067l-0.135,0.062l-0.185,-0.418c-0.023,-0.524 0.097,-0.97 0.429,-1.299l0.509,-0.312c0.418,-0.056 0.801,-0.006 1.17,0.141c-0.424,0.249 -0.909,0.416 -1.348,0.624c-0.089,0.15 -0.017,0.375 0.046,0.52l0.169,0.366Z" style="fill:#676162;"/><path d="M9.768,6.598l0.172,0.341c0.071,0.133 0.197,0.2 0.362,0.222c0.413,-0.204 0.818,-0.422 1.253,-0.59c-0.108,0.36 -0.294,0.749 -0.582,1.026l-0.532,0.195c-0.44,0.053 -0.842,-0.121 -1.218,-0.446l-0.202,-0.384l0.126,-0.064l-0.128,0.059l-0.176,-0.397c-0.021,-0.497 0.093,-0.919 0.407,-1.232l0.483,-0.295c0.396,-0.054 0.817,0.042 1.166,0.182c-0.402,0.235 -0.824,0.418 -1.241,0.614c-0.084,0.143 -0.11,0.284 -0.051,0.422l0.161,0.347Z" style="fill:#787272;"/></g></g><path d="M2.961,5.198c-0.546,0.142 -0.864,0.554 -1.041,1.131c-0.323,1.05 -0.114,1.44 0.304,1.605c1.346,0.533 2.614,0.838 3.849,0.642c1.235,-0.015 1.33,-1.397 0.424,-1.484c-1.318,-0.126 -2.247,-0.443 -3.186,-0.418c0.305,-0.82 0.068,-1.472 -0.35,-1.476Z" style="fill:#d09d72;"/></g></svg>